<svg xmlns="http://www.w3.org/2000/svg" viewBox="0 0 46.52 21.597"><g fill="#383838"><path d="M19.09 2.184c0 .217-.19.415-.575.405-1.29-.04-1.845-.085-2.71-.067l.253-.3c-.057 1.355-.085 4.047-.085 6.552 0 3.088.038 5.253.085 7.54.01.425-.235.632-.49.632-.235 0-.527-.197-.527-.583 0-.396-.008-.81-.008-1.233 0-3.124.094-5.883.094-8.99 0-1.45-.02-3.04-.085-3.935l.19.32c-.81-.02-1.47.047-2.59.123-.405.02-.603-.207-.603-.452 0-.235.207-.546.603-.527 1.46.065 1.365.083 2.43.083 1.054 0 1.308-.02 3.39-.075.413-.01.63.29.63.506zM20.956 8.134c-.367 0-.753-.273-.753-.79 0-.52.424-.8.81-.8.367 0 .8.282.772.8-.048.602-.49.79-.83.79zm-.085 8.907c-.253 0-.526-.187-.488-.582.056-.744.113-1.893.113-2.985 0-1.045-.057-2.1-.085-2.937-.02-.386.283-.584.537-.584.245 0 .49.188.48.584-.057 1.3-.14 2.57-.14 3.832 0 .67.046 1.394.083 2.043.02.415-.255.63-.5.63zM24.58 17.06c-.29 0-.555-.198-.536-.585.104-1.977.18-5.733.18-9.207 0-2.975-.01-4.735-.114-6.298-.028-.396.188-.63.48-.63.282 0 .583.234.574.63-.066 1.808-.14 5.027-.14 9.01 0 2.438.037 4.867.074 6.45.01.412-.225.63-.517.63zM32.273 12.295c0 1.252-.894 2.447-2.59 2.447-1.327 0-2.513-.77-2.513-2.334 0-1.79 1.233-2.73 2.56-2.75 1.517-.027 2.543.924 2.543 2.637zm-2.27 8.54c1.196 0 1.667-.707 1.667-1.714 0-1.063-.64-1.685-1.224-1.694-.612-.01-1.384.038-2.005-.037-.78-.048-1.195-.65-1.195-1.386 0-.79.5-1.478 1.064-1.854l.413.273c-.047.047-.64.94-.64 1.572 0 .414.33.612.876.612.695.037.657-.02 1.505.027.763.038 2.043.79 2.043 2.448 0 1.507-.922 2.514-2.758 2.514-1.413 0-2.43-.763-2.43-2.155 0-1.26.8-2.344 1.45-2.344.687 0 .828.264.33.264-.255 0-.933.62-.933 1.864 0 .96.54 1.61 1.837 1.61zm1.46-8.7c0-1.083-.744-1.694-1.742-1.694-1.166 0-1.703 1.027-1.703 1.837 0 1.14.64 1.75 1.676 1.75 1.216 0 1.77-.846 1.77-1.892zm-.95-1.958c-.15-1.026.837-2.796 1.985-2.796.255 0 .462.105.462.462 0 .198-.142.35-.414.48-.8.17-1.563.96-1.422 2.09l-.612-.235zM35.1 13.84c-.03.29-.04.45-.04.696 0 .593.03 1.27.077 1.892.027.414-.264.63-.547.63-.244 0-.5-.196-.46-.583.064-.8.103-2.137.103-3.323 0-.96-.028-1.93-.066-2.693-.02-.387.273-.584.518-.584s.51.188.48.583c-.027.385-.13 1.072-.235 2.617l-.075-.32c.537-1.657 1.873-3.04 2.617-3.04.34 0 .48.216.48.47 0 .226-.104.518-.508.584-.744.132-2.203 1.676-2.345 3.07zM42.237 12.21c-.988-2.635-2.655-6.288-3.917-9.81-.047-.112-.065-.216-.065-.31 0-.31.217-.518.49-.527.31-.01.44.18.592.687.97 3.4 2.655 7.146 3.428 8.888h-.396c.866-2.326 2.43-6.393 3.116-8.822.13-.442.254-.81.584-.81.28 0 .45.15.45.442 0 .085-.018.188-.046.292-.33 1.102-.848 2.278-1.563 4.312-.47 1.337-1.788 4.735-2.165 5.696l.273-1.205c-.028.83-.066 2.015-.066 2.598 0 .96.057 1.47.066 2.74 0 .415-.357.613-.603.613-.255 0-.52-.208-.49-.612.095-.97.208-1.73.208-2.814 0-.612-.057-1.808-.113-2.42l.217 1.065z"/></g><radialGradient id="a" cx="-5377.145" cy="2596.079" r="4.217" gradientTransform="rotate(105.105 -1698.13 3367.145)" gradientUnits="userSpaceOnUse"><stop offset="0" stop-color="#A3CA3A"/><stop offset="1" stop-color="#70A842"/></radialGradient><path fill="url(#a)" d="M8.095 20.473l.98-.457s-.478-2.972-.918-3.838c.9-.67 1.544-1.37 1.978-2.09-2.235.466-4.77.407-7.328-.283-.726-.196-1.424-.435-2.09-.71.918 2.373 2.864 3.973 6.612 3.507.33.854 1.285 3.467.765 3.87z"/><radialGradient id="b" cx="-5384.391" cy="2601.186" r="5.565" gradientTransform="rotate(105.105 -1698.13 3367.145)" gradientUnits="userSpaceOnUse"><stop offset="0" stop-color="#A3CA3A"/><stop offset="1" stop-color="#70A842"/></radialGradient><path fill="url(#b)" d="M3.297 7.415c.46-1.7 1.068-3.27 1.775-4.65-1.958-1.64-3.68-2.707-3.77-2.76L1.298 0v.002h-.003v.003c-.073.25-3.61 12.118 1.317 15.68-.33-2.354-.13-5.256.683-8.27z"/><radialGradient id="c" cx="-5375.852" cy="2592.063" r="1.592" gradientTransform="rotate(105.105 -1698.13 3367.145)" gradientUnits="userSpaceOnUse"><stop offset="0" stop-color="#A3CA3A"/><stop offset="1" stop-color="#70A842"/></radialGradient><path fill="url(#c)" d="M7.88 18.178c.302.985.53 2.05.215 2.295l.978-.456s-.453-2.84-.887-3.777c-.06.64-.16 1.29-.306 1.938z"/><radialGradient id="d" cx="-5384.895" cy="2597.666" r="6.558" gradientTransform="rotate(105.105 -1698.13 3367.145)" gradientUnits="userSpaceOnUse"><stop offset="0" stop-color="#3DC0C7"/><stop offset="1" stop-color="#178FA7"/></radialGradient><path fill="url(#d)" d="M1.415 4.492c4.523 1.22 7.248 6.16 6.78 11.655C16.863 9.637 1.572.17 1.3.004V0v.002h-.003v.003C1.272.1.734 1.9.36 4.282c.353.045.706.114 1.055.21z"/></svg>